<svg xmlns="http://www.w3.org/2000/svg" width="36" height="12" fill="none"><g clip-path="url(#a)"><path fill="#00579F" d="M15.6 11.598h-2.916L14.508.856h2.916zM26.172 1.12a7.5 7.5 0 0 0-2.616-.458c-2.88 0-4.908 1.463-4.92 3.554-.024 1.543 1.452 2.4 2.556 2.914 1.128.525 1.511.869 1.511 1.337-.011.72-.911 1.051-1.75 1.051-1.165 0-1.789-.17-2.737-.571l-.384-.172-.408 2.412c.684.296 1.944.56 3.252.571 3.06 0 5.052-1.44 5.076-3.668.012-1.223-.768-2.16-2.448-2.925-1.02-.492-1.645-.823-1.645-1.326.012-.457.529-.925 1.68-.925a5.2 5.2 0 0 1 2.173.41l.263.115zM30.047 7.793l1.164-3.006c-.012.023.24-.628.384-1.028l.204.925s.552 2.571.672 3.109zm3.6-6.937H31.39c-.695 0-1.224.195-1.524.892l-4.332 9.85h3.06l.612-1.612h3.744c.084.377.348 1.612.348 1.612H36zM10.249.856 7.393 8.181 7.08 6.696C6.553 4.98 4.897 3.119 3.049 2.193l2.616 9.393h3.084L13.332.856z"/><path fill="#FAA61A" d="M4.74.856H.048L0 1.073c3.66.892 6.084 3.04 7.08 5.623L6.06 1.759c-.168-.686-.684-.88-1.32-.903"/></g><defs><clipPath id="a"><path fill="#fff" d="M0 0h36v12H0z"/></clipPath></defs></svg>